<?xml version="1.0" standalone="no"?>
<!DOCTYPE svg PUBLIC "-//W3C//DTD SVG 20010904//EN"
 "http://www.w3.org/TR/2001/REC-SVG-20010904/DTD/svg10.dtd">
<svg version="1.0" xmlns="http://www.w3.org/2000/svg"
 width="2764.000000pt" height="2620.000000pt" viewBox="0 0 2764.000000 2620.000000"
 preserveAspectRatio="xMidYMid meet">
<metadata>
Created by potrace 1.15, written by Peter Selinger 2001-2017
</metadata>
<g transform="translate(0.000000,2620.000000) scale(0.100000,-0.100000)"
fill="#000000" stroke="none">
<path d="M13235 26194 c-27 -2 -142 -8 -255 -14 -113 -6 -308 -20 -435 -31
-3744 -321 -7186 -2085 -9544 -4889 -1729 -2056 -2757 -4539 -2966 -7160 -27
-347 -35 -567 -35 -1000 0 -433 8 -653 35 -1000 189 -2377 1052 -4642 2509
-6585 992 -1323 2243 -2469 3674 -3364 1906 -1192 4109 -1918 6382 -2105 433
-36 582 -41 1220 -41 638 0 787 5 1220 41 3764 309 7230 2077 9599 4894 1729
2056 2757 4539 2966 7160 27 347 35 567 35 1000 0 433 -8 653 -35 1000 -189
2377 -1052 4642 -2509 6585 -754 1006 -1667 1919 -2684 2683 -1874 1409 -4071
2324 -6422 2676 -404 60 -812 103 -1300 137 -152 10 -1340 21 -1455 13z m1360
-604 c988 -59 1920 -198 2686 -400 1395 -368 2727 -949 3939 -1715 1132 -716
2204 -1671 3097 -2757 1107 -1345 1953 -3023 2398 -4752 138 -539 257 -1314
305 -1996 97 -1381 -46 -2855 -395 -4066 -382 -1325 -986 -2591 -1780 -3729
-767 -1100 -1921 -2259 -3045 -3060 -1228 -874 -2636 -1554 -4139 -2000 -926
-274 -1914 -436 -3091 -507 -268 -16 -1232 -16 -1500 0 -1177 71 -2165 233
-3091 507 -1241 368 -2408 891 -3484 1563 -840 524 -1630 1161 -2355 1898
-955 971 -1660 1947 -2254 3119 -483 952 -867 2026 -1050 2935 -233 1159 -300
2333 -201 3530 55 664 176 1382 325 1935 373 1382 988 2707 1803 3885 722
1042 1738 2092 2827 2921 775 590 1787 1174 2765 1596 783 338 1703 640 2420
793 824 177 1600 271 2590 314 152 7 1061 -3 1230 -14z"/>
<path d="M13941 22961 c-13 -13 -20 -29 -17 -39 3 -9 -19 -89 -49 -177 -31
-88 -73 -212 -95 -275 -21 -63 -67 -194 -100 -290 -34 -96 -67 -193 -75 -215
-7 -22 -41 -119 -75 -215 -33 -96 -72 -206 -85 -245 -13 -38 -58 -169 -100
-290 -42 -121 -83 -238 -90 -260 -7 -22 -41 -119 -74 -215 -34 -96 -79 -227
-101 -290 -21 -63 -66 -194 -100 -290 -34 -96 -72 -206 -85 -245 -13 -38 -46
-135 -75 -215 -83 -237 -121 -352 -116 -357 2 -2 36 12 75 31 85 43 213 81
341 102 192 31 520 12 625 -36 11 -5 56 -21 100 -36 303 -101 598 -325 771
-586 89 -133 165 -302 208 -460 l22 -79 33 42 34 41 -5 422 c-5 408 -5 422 15
458 14 27 33 42 70 57 43 18 70 21 209 21 149 0 160 1 153 18 -26 65 -147 422
-150 442 -2 14 -9 41 -16 60 -6 19 -15 44 -19 55 -4 11 -13 36 -19 55 -7 19
-17 49 -21 65 -10 33 -36 109 -49 140 -5 11 -18 52 -30 92 -12 40 -26 75 -31
78 -6 4 -10 15 -10 27 0 11 -6 34 -14 51 -7 18 -19 52 -26 77 -7 25 -20 63
-30 85 -9 22 -30 81 -45 130 -15 50 -34 101 -41 115 -6 14 -21 54 -32 90 -23
73 -48 145 -61 175 -5 11 -14 40 -21 65 -8 25 -22 68 -33 95 -34 88 -45 119
-58 165 -7 25 -20 63 -29 85 -9 22 -31 83 -48 135 -29 91 -125 368 -171 495
-12 33 -37 105 -55 160 -19 55 -41 116 -49 135 -8 19 -29 78 -45 130 -17 52
-52 154 -77 225 -26 72 -49 140 -52 153 -8 33 -39 50 -104 58 -50 6 -59 4 -78
-15z"/>
<path d="M13435 19390 c-4 -6 -2 -25 4 -43 11 -36 39 -140 109 -407 17 -63 38
-142 47 -175 9 -33 29 -111 45 -172 16 -62 34 -122 40 -133 12 -23 38 -25 121
-10 30 5 97 14 149 20 52 6 145 17 205 24 61 8 169 22 240 31 192 23 244 31
251 37 8 9 -38 94 -108 199 -38 57 -108 140 -178 210 -173 175 -349 287 -555
356 -148 50 -356 85 -370 63z"/>
<path d="M13040 19371 c-140 -33 -214 -60 -327 -117 -215 -109 -395 -266 -545
-475 -57 -80 -138 -227 -138 -252 0 -18 21 -27 66 -27 20 0 83 -7 142 -14 59
-8 170 -22 247 -31 77 -9 194 -22 260 -30 243 -28 222 -28 239 -3 9 12 16 31
16 42 0 11 7 42 15 70 8 28 28 107 45 176 16 69 59 245 95 391 36 147 65 272
65 278 0 16 -92 12 -180 -8z"/>
<path d="M21870 19116 l0 -196 28 -5 c101 -21 223 -130 285 -258 75 -151 107
-323 114 -614 11 -403 -40 -646 -173 -822 -55 -73 -131 -131 -193 -147 l-46
-11 -3 -196 -2 -197 32 6 c193 34 357 139 465 299 122 181 205 430 238 711 17
150 20 442 4 582 -49 455 -226 812 -474 958 -52 30 -164 69 -227 78 l-48 7 0
-195z"/>
<path d="M23230 19304 c-37 -7 -154 -45 -162 -53 -3 -3 -8 -118 -10 -254 -2
-136 -1 -242 1 -235 11 37 67 101 107 124 112 66 332 28 415 -72 42 -51 119
-47 138 8 14 40 14 316 0 355 -22 64 -184 122 -354 128 -60 2 -121 1 -135 -1z"/>
<path d="M21635 19276 c-200 -64 -321 -175 -433 -394 -86 -169 -139 -343 -166
-552 -45 -344 -23 -690 61 -970 63 -211 162 -391 278 -505 75 -74 207 -145
313 -169 l62 -14 0 199 c0 185 -1 199 -18 199 -30 0 -104 53 -165 119 -66 71
-134 204 -166 320 -41 147 -54 274 -54 496 1 232 20 376 68 523 55 163 168
313 273 363 l51 24 1 193 c0 221 10 206 -105 168z"/>
<path d="M15008 19259 c-16 -6 -31 -22 -37 -41 -12 -34 -13 -1078 -2 -1961 l6
-509 24 -19 c20 -16 40 -19 130 -19 120 0 144 9 155 61 3 18 3 587 -1 1266
l-6 1233 -121 -1 c-67 0 -133 -5 -148 -10z"/>
<path d="M15380 19076 l0 -193 84 -5 c99 -5 139 -26 187 -97 44 -66 53 -112
54 -256 0 -146 -14 -208 -64 -287 -46 -72 -99 -102 -188 -106 l-73 -4 0 -194
c0 -193 0 -194 22 -194 32 0 107 -83 149 -165 20 -38 101 -234 179 -435 158
-404 162 -415 185 -424 9 -3 73 -6 141 -6 111 0 126 2 144 20 19 19 25 38 20
70 -3 19 -331 821 -375 918 -19 41 -50 96 -69 122 l-34 48 25 13 c51 27 133
129 178 222 108 225 125 509 44 752 -57 171 -135 272 -252 330 -96 46 -174 65
-274 65 l-83 0 0 -194z"/>
<path d="M16948 19259 c-18 -7 -31 -22 -39 -47 -16 -48 -4 -2403 12 -2450 14
-39 50 -52 149 -52 101 0 136 13 149 53 7 22 10 438 8 1269 l-2 1238 -125 -1
c-69 0 -137 -5 -152 -10z"/>
<path d="M17350 19075 l0 -195 204 0 c228 0 259 6 275 52 14 40 14 246 0 286
-16 46 -47 52 -275 52 l-204 0 0 -195z"/>
<path d="M18298 19259 c-14 -6 -29 -18 -33 -27 -3 -9 -139 -563 -300 -1229
-321 -1324 -309 -1259 -243 -1282 45 -16 202 -14 243 3 41 17 44 26 105 316
23 107 147 643 274 1190 128 547 231 1000 228 1007 -2 6 -17 16 -34 22 -38 13
-203 13 -240 0z"/>
<path d="M19328 19259 c-18 -7 -31 -22 -39 -47 -16 -48 -4 -2403 12 -2450 14
-39 50 -52 149 -52 100 0 135 13 149 52 14 39 14 516 1 1173 -17 899 -20 1049
-20 1193 l0 142 -112 -1 c-62 0 -125 -5 -140 -10z"/>
<path d="M20518 19259 c-14 -6 -30 -18 -33 -27 -4 -9 -98 -277 -209 -595 -111
-318 -206 -578 -211 -578 -4 0 -86 217 -182 483 l-173 483 5 -360 c3 -198 8
-421 11 -495 l5 -135 111 -310 c60 -170 115 -322 120 -337 15 -43 104 -62 175
-37 30 10 34 20 143 342 61 183 120 355 131 382 10 28 19 57 19 65 0 8 89 257
199 552 109 295 195 541 192 547 -14 21 -67 31 -169 30 -59 0 -119 -5 -134
-10z"/>
<path d="M24018 19259 c-16 -6 -31 -22 -37 -41 -7 -20 -11 -179 -11 -459 l0
-429 160 0 160 0 0 275 0 275 269 0 c165 0 280 4 299 11 42 14 52 50 52 184 0
134 -10 170 -52 184 -40 14 -802 14 -840 0z"/>
<path d="M10300 19234 c-34 -7 -172 -53 -188 -62 -17 -11 -13 -463 5 -469 6
-2 25 16 42 41 18 25 52 58 77 72 112 66 332 28 415 -72 42 -51 119 -47 138 8
14 40 14 316 0 355 -22 64 -184 122 -354 128 -60 2 -121 1 -135 -1z"/>
<path d="M3145 19171 c50 -21 180 -78 290 -127 l200 -89 601 -3 c482 -2 603 0
611 10 6 7 13 55 16 105 7 112 2 119 -85 127 -35 3 -436 7 -893 10 l-830 5 90
-38z"/>
<path d="M2755 19080 c-6 -92 -4 -124 6 -136 14 -17 9 -15 274 -124 105 -43
285 -117 400 -165 116 -47 245 -101 288 -118 42 -18 77 -35 77 -38 0 -5 -84
-38 -540 -211 -270 -102 -320 -124 -320 -138 0 -7 103 -10 328 -8 l327 3 95
38 c136 55 148 59 325 127 88 34 187 70 220 82 33 11 65 27 71 35 18 21 27 99
15 122 -6 11 -44 32 -88 49 -43 17 -161 65 -263 107 -267 110 -356 145 -369
145 -7 0 -74 27 -149 59 -221 96 -449 195 -562 245 -57 25 -110 46 -116 46 -8
0 -14 -39 -19 -120z"/>
<path d="M5258 19189 c-38 -14 -48 -54 -48 -184 0 -134 10 -170 52 -184 18 -6
110 -11 214 -11 l184 0 0 -523 c0 -288 3 -653 7 -810 l6 -287 157 0 158 0 -6
810 -5 810 81 0 82 0 0 195 0 195 -427 -1 c-252 0 -439 -5 -455 -10z"/>
<path d="M6260 19005 l0 -195 44 0 c66 0 103 17 115 52 14 40 14 246 0 286
-12 35 -49 52 -115 52 l-44 0 0 -195z"/>
<path d="M6578 19189 c-18 -7 -31 -22 -39 -47 -16 -48 -4 -2403 12 -2450 14
-39 50 -52 149 -52 106 0 137 12 151 60 8 27 10 183 7 544 l-4 506 268 0 268
0 0 179 c0 99 3 186 6 195 6 14 -22 16 -270 16 l-276 0 0 489 c0 321 -4 499
-11 519 -7 20 -21 34 -41 41 -38 13 -183 13 -220 0z"/>
<path d="M7568 19189 c-18 -7 -31 -22 -39 -47 -16 -48 -4 -2403 12 -2450 14
-39 50 -52 149 -52 100 0 135 13 149 53 14 40 4 2406 -10 2454 -7 22 -19 35
-41 42 -38 13 -183 13 -220 0z"/>
<path d="M8158 19189 c-16 -6 -31 -22 -37 -41 -7 -20 -11 -182 -11 -469 l0
-439 160 0 160 0 0 285 0 285 269 0 c165 0 280 4 299 11 42 14 52 50 52 184 0
134 -10 170 -52 184 -40 14 -802 14 -840 0z"/>
<path d="M10928 19189 c-38 -14 -48 -54 -48 -184 0 -134 10 -170 52 -184 18
-6 109 -11 213 -11 l182 0 7 -1045 c5 -658 11 -1056 17 -1075 13 -37 51 -50
149 -50 100 0 135 12 150 53 11 33 6 1931 -6 2325 l-6 182 -342 -1 c-195 0
-352 -5 -368 -10z"/>
<path d="M11750 19005 l0 -195 134 0 c73 0 147 5 164 11 42 14 52 50 52 184 0
134 -10 170 -52 184 -17 6 -91 11 -164 11 l-134 0 0 -195z"/>
<path d="M22882 19115 c-51 -58 -102 -157 -138 -265 -25 -78 -28 -98 -28 -245
0 -123 4 -175 17 -225 22 -81 106 -253 146 -300 l30 -35 1 120 c1 66 5 316 10
555 4 239 7 436 5 438 -1 2 -21 -18 -43 -43z"/>
<path d="M9929 19018 c-44 -61 -82 -140 -115 -238 -26 -79 -28 -97 -28 -245 0
-123 4 -175 17 -225 21 -76 105 -251 142 -295 l25 -30 0 538 c0 295 -2 537 -5
537 -3 0 -19 -19 -36 -42z"/>
<path d="M18566 18621 l-78 -339 56 -233 c31 -129 59 -242 62 -251 5 -16 -5
-18 -115 -18 -105 0 -120 -2 -125 -17 -6 -22 -86 -363 -86 -369 0 -2 96 -4
213 -4 l212 0 69 -277 c96 -389 91 -372 131 -389 41 -17 198 -19 243 -3 66 23
76 -30 -224 1146 -151 593 -275 1081 -277 1085 -1 4 -37 -145 -81 -331z"/>
<path d="M20697 18502 c-76 -207 -147 -398 -158 -424 -18 -44 -19 -70 -13
-665 3 -348 10 -632 15 -650 13 -40 48 -53 149 -53 105 0 137 12 151 58 7 26
8 335 2 1074 l-8 1036 -138 -376z"/>
<path d="M13322 18849 c-5 -13 -19 -55 -31 -94 -28 -97 -70 -232 -85 -280 -7
-22 -21 -67 -31 -100 -9 -33 -25 -80 -34 -105 l-17 -45 -327 -3 c-180 -1 -327
-6 -327 -10 0 -4 69 -49 153 -100 395 -242 397 -243 397 -269 0 -13 -49 -173
-110 -355 -60 -183 -108 -333 -105 -336 2 -2 71 58 152 134 302 282 361 334
377 334 10 0 134 -108 276 -240 142 -132 261 -240 265 -240 3 0 2 8 -4 18 -13
25 -222 642 -228 674 -5 24 3 32 78 81 46 29 138 87 204 127 66 40 139 86 162
101 23 16 45 29 48 29 4 0 21 10 38 23 l32 22 -334 5 -334 5 -29 95 c-16 52
-33 109 -38 125 -5 17 -30 98 -55 180 -26 83 -52 168 -57 190 -14 53 -25 63
-36 34z"/>
<path d="M23045 18250 c-4 -129 -5 -257 -3 -285 l3 -50 115 -93 c225 -181 280
-252 301 -381 12 -82 0 -211 -25 -259 -22 -43 -90 -99 -133 -111 -69 -20 -178
-9 -265 24 -17 7 -18 -7 -18 -194 l0 -201 28 -12 c16 -7 75 -12 142 -12 97 1
128 5 196 27 144 48 246 131 312 254 110 207 129 480 49 713 -69 200 -156 307
-427 525 -167 134 -207 174 -246 249 l-22 40 -7 -234z"/>
<path d="M14600 18280 c-63 -42 -252 -169 -420 -280 -168 -111 -314 -208 -324
-216 -18 -12 -18 -15 -3 -46 8 -18 38 -85 67 -148 110 -244 134 -298 171 -378
22 -46 39 -85 39 -87 0 -2 16 -39 36 -82 20 -43 47 -103 61 -132 l24 -55 85
85 c299 295 444 631 444 1029 0 150 -37 392 -59 389 -3 0 -58 -36 -121 -79z"/>
<path d="M10100 18103 l0 -248 125 -99 c143 -114 243 -213 273 -273 46 -89 50
-290 8 -371 -22 -43 -90 -99 -133 -111 -69 -20 -178 -9 -265 24 -17 7 -18 -7
-18 -198 l0 -205 66 -12 c186 -35 424 41 540 173 166 188 217 536 121 817 -69
200 -156 307 -427 525 -91 73 -182 154 -201 179 -26 34 -41 45 -61 46 l-28 0
0 -247z"/>
<path d="M11941 18248 c-25 -130 -33 -280 -21 -397 33 -328 142 -581 353 -822
82 -93 176 -181 187 -174 4 2 15 26 25 52 10 26 23 62 30 78 13 29 31 77 170
430 37 94 83 209 102 258 19 48 33 93 30 100 -3 6 -150 100 -326 207 -177 107
-333 202 -346 210 -13 8 -59 36 -101 63 -42 26 -80 47 -84 47 -5 0 -13 -24
-19 -52z"/>
<path d="M23970 18028 c0 -101 3 -321 7 -490 l6 -308 160 0 160 0 -6 295 -6
295 243 0 c147 0 255 4 274 11 42 14 52 50 52 184 0 134 -10 170 -52 184 -20
7 -173 11 -434 11 l-404 0 0 -182z"/>
<path d="M17350 17985 l0 -195 179 0 c202 0 234 7 250 52 14 40 14 246 0 286
-16 45 -48 52 -250 52 l-179 0 0 -195z"/>
<path d="M8110 17963 c0 -98 3 -323 7 -500 l6 -323 160 0 160 0 -6 305 -6 305
243 0 c147 0 255 4 274 11 42 14 52 50 52 184 0 134 -10 170 -52 184 -20 7
-173 11 -434 11 l-404 0 0 -177z"/>
<path d="M2720 17937 c0 -65 4 -99 14 -113 14 -18 36 -19 628 -26 337 -3 801
-8 1031 -10 490 -4 447 -15 447 119 0 138 131 123 -1080 123 l-1040 0 0 -93z"/>
<path d="M14876 17954 c-3 -26 -6 -68 -6 -93 0 -161 -95 -470 -202 -655 -114
-198 -304 -397 -500 -522 -179 -115 -413 -202 -583 -218 -33 -3 -95 -10 -137
-15 -79 -9 -274 1 -364 18 -77 15 -148 33 -159 41 -5 4 -39 17 -75 30 -204 73
-384 185 -542 338 -123 120 -202 219 -268 340 -25 45 -47 82 -51 82 -4 0 -210
-584 -382 -1085 -59 -173 -76 -221 -108 -310 -17 -49 -34 -108 -36 -130 l-4
-40 238 -237 c131 -131 246 -238 256 -238 9 0 35 10 58 23 244 132 282 151
419 209 52 22 104 44 115 48 88 38 116 49 160 59 120 29 272 67 325 82 25 7
63 16 85 20 59 11 171 33 345 69 199 40 581 62 751 44 57 -7 149 -17 204 -23
154 -17 245 -31 300 -46 78 -21 181 -48 345 -91 96 -24 161 -44 200 -59 19 -7
87 -32 150 -55 63 -23 131 -48 150 -55 19 -8 78 -30 130 -50 116 -44 109 -41
249 -109 62 -31 120 -56 129 -56 16 0 132 108 365 342 103 105 147 155 147
172 0 12 -16 68 -35 123 -19 56 -38 128 -41 160 -4 32 -12 74 -19 93 -51 137
-62 171 -68 203 -3 21 -15 50 -26 66 -12 16 -21 42 -22 58 0 15 -15 66 -32
113 -39 103 -59 118 -138 101 -67 -15 -225 -14 -290 1 -44 10 -57 19 -81 53
-27 39 -308 724 -308 752 0 38 -36 96 -76 123 -74 52 -108 36 -120 -56 -4 -33
-2 -71 4 -93 6 -20 14 -171 18 -336 7 -290 6 -301 -14 -340 -11 -22 -35 -57
-54 -78 -32 -38 -35 -39 -123 -47 -100 -9 -131 0 -198 60 l-34 29 -7 603 c-6
474 -10 606 -20 616 -11 11 -14 5 -20 -34z"/>
<path d="M2733 17530 c-22 -9 -23 -15 -23 -118 0 -79 4 -113 13 -121 10 -7 65
-9 186 -4 l172 6 -3 111 -3 111 -90 7 c-49 3 -121 9 -160 12 -38 3 -80 1 -92
-4z"/>
<path d="M3210 17405 l0 -105 94 0 c72 0 96 4 106 15 19 23 26 158 9 171 -8 6
-58 14 -111 18 l-98 6 0 -105z"/>
<path d="M13250 17267 c-84 -80 -346 -327 -486 -457 -51 -47 -92 -90 -93 -96
-2 -18 181 -98 289 -128 143 -39 235 -48 427 -44 165 4 200 8 288 32 114 31
177 51 220 70 17 7 49 22 73 32 23 10 42 21 42 24 0 4 -107 107 -237 230 -131
123 -282 265 -335 317 -53 51 -100 93 -105 93 -4 0 -42 -33 -83 -73z"/>
<path d="M22768 17258 c-40 -14 -48 -53 -48 -227 0 -191 7 -209 95 -258 33
-18 63 -33 68 -33 4 0 7 102 7 226 0 210 -1 228 -20 254 -25 35 -66 50 -102
38z"/>
<path d="M9838 17188 c-40 -14 -48 -53 -48 -227 0 -191 7 -209 95 -258 33 -18
63 -33 68 -33 4 0 7 102 7 226 0 210 -1 228 -20 254 -25 35 -66 50 -102 38z"/>
<path d="M23980 16946 c0 -176 8 -210 52 -225 42 -15 824 -15 866 0 42 14 52
50 52 184 0 134 -10 170 -52 184 -20 7 -185 11 -474 11 l-444 0 0 -154z"/>
<path d="M5670 16891 c0 -94 5 -182 11 -199 14 -39 49 -52 149 -52 100 0 135
13 149 52 6 17 11 105 11 199 l0 169 -160 0 -160 0 0 -169z"/>
<path d="M8120 16882 c0 -182 8 -216 52 -231 20 -7 173 -11 433 -11 260 0 413
4 433 11 42 14 52 50 52 184 0 136 -10 170 -53 184 -18 5 -231 12 -474 15
l-443 7 0 -159z"/>
<path d="M2706 16995 c-22 -22 -23 -196 -1 -218 17 -18 280 -24 1365 -32 545
-4 709 -2 718 7 8 8 12 48 12 115 0 89 -2 104 -19 112 -11 6 -281 12 -702 16
-376 3 -835 8 -1020 10 -301 5 -339 4 -353 -10z"/>
<path d="M17104 15409 c-19 -7 -490 -487 -494 -502 0 -5 40 -40 91 -78 51 -38
134 -108 186 -155 82 -75 132 -128 287 -304 118 -134 161 -189 231 -300 43
-69 102 -162 131 -207 29 -45 65 -108 80 -140 15 -32 41 -89 59 -128 18 -38
57 -122 88 -186 49 -103 72 -166 97 -264 5 -16 29 -102 55 -190 52 -177 62
-219 106 -475 50 -284 58 -360 69 -665 8 -211 8 -346 0 -495 -6 -113 -14 -261
-17 -330 l-6 -125 54 -24 c30 -13 122 -52 204 -88 83 -35 168 -72 190 -83 119
-55 179 -81 199 -86 18 -4 58 21 191 123 93 70 248 189 346 263 97 74 295 225
440 336 145 110 352 267 459 349 107 82 296 226 420 320 223 170 723 551 1020
777 85 65 270 206 410 312 140 107 345 263 455 347 110 84 313 238 450 343
230 175 396 301 876 666 97 74 266 203 375 286 110 83 235 179 279 213 44 33
155 118 248 188 92 69 164 130 160 133 -5 4 -278 13 -608 19 -330 6 -888 18
-1240 26 -1045 24 -1960 44 -2450 54 -253 6 -662 15 -910 21 -845 20 -1300 30
-1825 40 -289 5 -562 11 -606 13 -45 2 -90 0 -100 -4z"/>
<path d="M10040 15400 c-186 -10 -462 -17 -1108 -29 -266 -6 -576 -13 -690
-16 -114 -3 -445 -10 -737 -16 -291 -5 -852 -16 -1245 -24 -393 -8 -947 -19
-1230 -24 -283 -6 -729 -15 -990 -21 -261 -5 -560 -12 -665 -14 -190 -3 -223
-10 -173 -37 13 -7 73 -50 133 -97 61 -47 225 -171 365 -278 507 -383 1228
-930 1545 -1171 94 -71 469 -356 835 -633 650 -493 864 -655 1535 -1164 517
-392 833 -631 1190 -902 182 -137 388 -294 458 -348 l128 -99 57 28 c31 16
103 50 160 77 56 26 168 80 248 118 l147 70 -7 38 c-4 20 -13 78 -21 127 -7
50 -21 137 -30 195 -9 58 -20 131 -25 163 -5 33 -5 116 0 190 40 600 50 703
69 772 5 17 16 62 25 100 8 39 24 111 36 160 11 50 24 108 29 130 5 22 16 69
25 105 8 36 25 108 36 160 53 234 202 580 349 810 44 69 108 170 143 225 57
90 105 151 351 454 44 53 158 170 255 259 98 90 181 168 186 172 12 12 -210
246 -383 402 l-144 130 -81 -6 c-44 -4 -90 -7 -101 -7 -318 7 -551 7 -675 1z"/>
<path d="M13787 14980 c-414 -31 -869 -155 -1226 -335 -898 -452 -1542 -1288
-1751 -2273 -201 -950 50 -1987 663 -2741 294 -361 610 -618 1076 -876 254
-140 380 -183 789 -269 363 -76 687 -92 1057 -50 215 24 531 89 644 133 42 17
126 49 186 72 103 39 204 85 437 199 84 42 236 148 246 172 2 5 41 36 85 71
504 382 890 912 1104 1515 135 379 193 709 193 1095 0 533 -109 997 -344 1467
-509 1016 -1467 1685 -2590 1810 -133 14 -435 20 -569 10z m938 -881 c231 -20
437 -61 562 -112 l58 -23 3 -297 c1 -163 1 -297 -1 -297 -2 0 -46 22 -98 49
-237 124 -503 190 -850 212 -155 9 -393 1 -464 -17 -20 -5 -20 -1 -17 233 2
131 7 241 10 245 24 25 544 30 797 7z m-1205 -217 c0 -71 -3 -190 -7 -265 l-6
-136 -56 -37 c-31 -20 -83 -65 -116 -99 -106 -109 -145 -210 -145 -375 0 -111
18 -189 62 -272 35 -67 136 -180 196 -222 l40 -28 -4 -251 c-3 -139 -7 -280
-10 -315 l-6 -63 -122 64 c-413 216 -659 469 -747 768 -31 105 -39 371 -14
490 64 318 290 584 642 756 79 38 263 111 286 113 4 0 7 -58 7 -128z m770
-1842 c627 -282 933 -498 1126 -796 105 -161 144 -301 144 -522 0 -262 -53
-437 -187 -617 -254 -342 -740 -538 -1392 -562 l-164 -6 6 78 c4 43 7 152 7
242 l0 163 124 0 c470 0 808 147 930 403 46 97 60 173 54 304 -8 167 -58 273
-194 407 -124 123 -354 256 -763 444 l-114 52 6 182 c4 100 7 234 7 299 l0
118 93 -44 c50 -24 193 -89 317 -145z m-1460 -1783 c122 -58 351 -135 499
-168 l103 -24 -4 -247 c-2 -135 -5 -249 -8 -251 -3 -3 -77 6 -165 20 -257 40
-569 126 -662 183 l-33 20 0 314 0 314 83 -56 c45 -30 129 -78 187 -105z"/>
<path d="M17876 10208 c-8 -18 -34 -80 -57 -138 -172 -435 -293 -635 -593
-980 -224 -257 -574 -586 -746 -702 -58 -39 -139 -95 -180 -123 -198 -137
-243 -165 -355 -222 -66 -33 -148 -72 -182 -86 -34 -14 -100 -48 -147 -75
-219 -129 -751 -263 -1139 -287 -90 -6 -109 -10 -117 -25 -6 -11 -10 -145 -10
-329 l0 -311 30 -27 c16 -14 67 -52 112 -83 71 -48 311 -215 468 -325 25 -17
128 -89 230 -160 102 -71 205 -143 230 -160 40 -28 304 -212 481 -334 208
-145 419 -292 482 -337 40 -28 185 -129 322 -224 138 -95 282 -196 320 -223
118 -82 255 -178 398 -277 76 -52 197 -137 270 -188 73 -52 155 -109 182 -127
28 -18 84 -57 126 -87 299 -209 485 -339 772 -538 76 -52 197 -137 270 -188
72 -51 157 -110 187 -131 69 -47 368 -255 435 -302 28 -20 133 -93 235 -164
275 -191 506 -352 585 -407 39 -27 101 -70 138 -96 37 -26 78 -54 90 -62 20
-14 20 -14 13 5 -5 11 -12 34 -17 50 -12 43 -29 100 -114 380 -80 263 -95 312
-120 398 -40 133 -60 200 -85 282 -12 38 -36 120 -56 185 -8 27 -22 72 -30
100 -8 27 -21 71 -29 97 -8 27 -48 161 -90 298 -93 305 -104 342 -114 380 -4
17 -14 48 -21 70 -33 102 -69 221 -117 385 -9 30 -22 73 -29 95 -8 22 -48 155
-89 295 -41 140 -79 266 -84 280 -5 14 -19 59 -31 100 -12 41 -25 86 -29 100
-5 14 -15 50 -24 80 -18 58 -68 225 -92 300 -8 25 -28 92 -45 150 -16 58 -35
119 -40 135 -10 32 -112 368 -136 448 -8 26 -21 71 -30 100 -8 28 -19 66 -23
82 -4 17 -13 46 -19 65 -7 19 -26 80 -42 135 -17 55 -35 114 -40 130 -11 34
-234 773 -256 848 -8 26 -20 68 -28 95 -8 26 -80 265 -161 532 -81 267 -153
506 -161 533 -8 26 -21 70 -29 97 -8 28 -22 73 -30 100 -8 28 -21 73 -29 101
-17 60 -27 73 -69 90 -18 7 -74 32 -125 56 -51 24 -95 43 -98 43 -2 0 -32 13
-67 29 -236 111 -232 110 -251 69z"/>
<path d="M10100 10164 c-25 -13 -90 -44 -145 -69 -416 -192 -390 -176 -406
-237 -11 -44 -27 -97 -99 -333 -34 -110 -68 -221 -76 -247 -8 -27 -20 -69 -28
-95 -8 -27 -60 -199 -116 -383 -56 -184 -108 -355 -116 -380 -7 -25 -47 -157
-89 -295 -77 -251 -93 -305 -119 -392 -8 -27 -53 -176 -101 -333 -48 -157 -93
-306 -101 -332 -8 -27 -20 -69 -28 -95 -8 -27 -49 -160 -91 -298 -42 -137 -83
-272 -91 -300 -19 -65 -25 -86 -129 -425 -48 -157 -93 -306 -101 -332 -8 -27
-20 -69 -28 -95 -8 -27 -42 -138 -76 -248 -55 -181 -73 -238 -100 -330 -5 -16
-50 -165 -100 -330 -51 -165 -98 -321 -106 -347 -8 -27 -21 -70 -29 -98 -8
-27 -21 -71 -29 -97 -8 -27 -49 -160 -91 -298 -69 -228 -88 -290 -115 -380 -5
-16 -43 -142 -85 -280 -42 -137 -83 -271 -91 -297 -31 -106 -43 -147 -69 -231
-15 -49 -25 -91 -22 -94 3 -2 36 17 74 43 37 26 273 189 523 363 250 173 475
329 500 346 25 17 83 58 130 90 155 107 204 141 285 198 44 31 132 91 195 135
98 67 198 136 530 367 25 17 83 58 130 90 47 32 108 75 135 94 28 19 253 175
500 346 248 171 479 332 515 357 101 70 209 145 280 194 223 154 339 234 620
429 173 120 367 254 430 297 63 44 151 104 195 135 174 122 226 157 665 462
250 173 487 337 525 364 39 26 91 63 117 80 26 17 51 43 56 57 10 31 3 613 -8
630 -4 7 -52 19 -106 26 -97 13 -214 30 -424 60 -58 8 -135 19 -171 24 -36 5
-94 21 -130 36 -60 24 -87 35 -184 71 -22 9 -56 21 -75 28 -19 8 -98 37 -175
65 -105 38 -213 91 -435 212 -162 88 -315 175 -340 193 -196 139 -250 181
-360 276 -252 216 -524 519 -651 725 -49 78 -210 331 -267 419 -49 75 -90 151
-136 255 -65 145 -107 230 -114 229 -4 -1 -27 -12 -52 -25z"/>
</g>
</svg>
